<svg xmlns="http://www.w3.org/2000/svg" viewBox="-11 -12 100 101"><title>Asset 22</title><g id="Layer_2" data-name="Layer 2"><g id="logo"><path d="M98.57,103.31l10.37,12.83a4.24,4.24,0,0,1-.62,5.94h0a4.24,4.24,0,0,1-5.94-.63L91.94,108.54" stroke="#000" stroke-miterlimit="10" stroke-width="2"/><path d="M91.94,108.54,66.41,77A4.23,4.23,0,0,1,67,71h0a4.23,4.23,0,0,1,5.93.63l25.6,31.66Z" fill="none" stroke="#000" stroke-miterlimit="10" stroke-width="2"/><circle cx="39.05" cy="39.18" r="37" fill="none" stroke="#000" stroke-miterlimit="10"/><ellipse cx="39.05" cy="39.05" rx="39" ry="39.1" transform="translate(-16.18 39.07) rotate(-45.02)" fill="none" stroke="#000" stroke-miterlimit="10"/><text transform="translate(9.02 22.15)" font-size="11.46" fill="#8ac5ff" font-family="CooperBlack, Cooper Black"><tspan xml:space="preserve">    </tspan><tspan x="11.46" y="0" fill="#74caff"> </tspan><tspan x="14.33" y="0" fill="#ffd105" stroke="#000" stroke-miterlimit="10" stroke-width="0.75" font-size="16.67">See </tspan><tspan font-size="16.67" fill="#ffd105" stroke="#000" stroke-miterlimit="10" stroke-width="0.75"><tspan x="0" y="20" xml:space="preserve">    All </tspan></tspan><tspan font-size="16.67" fill="#ffd105"><tspan x="0" y="40.01" xml:space="preserve" stroke="#000" stroke-miterlimit="10" stroke-width="0.75">  Deals</tspan><tspan x="54.03" y="40.01" fill="lime" font-size="13.54"> </tspan></tspan></text></g></g></svg>