<svg xmlns="http://www.w3.org/2000/svg" viewBox="0 0 294.46 59.56"><title>Asset 6</title><g id="Layer_2" data-name="Layer 2"><g id="logo"><path d="M29.64,16.15c1.88,2.51,3.55-.88,1.78-1.77s-4.43-3.1-10.63-3.1S8.83,14.82,8.39,21,13.7,32.1,16.8,34.31s9.3,7.09,9.74,8.86,0,6.64-8,5.76-9.3-4-9.3-4S7.5,44.05,7.5,46.27s8,4.43,11.52,4.43,15.05-.45,15.5-12.4c0,0,0-5.76-6.65-11.08S15,17,17.69,14.38,28.32,14.38,29.64,16.15Z" fill="#ffd105" stroke="#000" stroke-miterlimit="10" stroke-width="15"/><path d="M41.16,48.7c-.44,1.33-.44,2.22,1.77,1.33,0,0,1.33-3.54,2.22-4.43a137.66,137.66,0,0,1,14.61,0s1.33,4.88,2.22,4.88H75.71L57.55,11.06H57.1S44.7,42.5,43.82,43.39A9.08,9.08,0,0,0,41.6,43a1.19,1.19,0,0,0-.88,1.77,7.47,7.47,0,0,0,2.21.88Z" fill="#ffd105" stroke="#000" stroke-miterlimit="10" stroke-width="15"/><path d="M51.79,29.22,46,43s-.44.88.89.88H58s.89,0,.44-.88S52.23,28.33,51.79,29.22Z" fill="#ffd105" stroke="#000" stroke-miterlimit="10" stroke-width="15"/><path d="M73.49,13.27s-1.77-1.77.89-1.77h12.4s.44,0,.88.89,8,18.6,8,18.6.44,1.33.88,0,7.53-19,7.53-19,1.77-1.33,1.77.89l-15,37.65h-.45Z" fill="#ffd105" stroke="#000" stroke-miterlimit="10" stroke-width="15"/><path d="M112.91,11.72h24.36s2.21,1.33,0,2.22a23.4,23.4,0,0,0-3.54-.45h-6.65s-.44,0-.44.89v7.53h7.53s4,1.33,0,2.21h-7.09a.43.43,0,0,0-.44.45V48s-.44.44.89.44h8.41s4,1.77,0,1.77h-23Z" fill="#ffd105" stroke="#000" stroke-miterlimit="10" stroke-width="15"/><path d="M148.79,25.89s-2.66,0-.89-2.21,17.72-5.31,24.36.89c0,0,3.1,2.21,3.1,8V48.93A1.3,1.3,0,0,1,174,50.25h-9.3a.87.87,0,0,1-.89-.88c0-.89-.44-1.33-1.33-.44s-6.64,3.54-13.72,0-7.53-18.16,5.75-19.49c0,0,3.55-.89,9.3,1.33V23.24S154.1,20.58,148.79,25.89Z" fill="#ffd105" stroke="#000" stroke-miterlimit="10" stroke-width="15"/><path d="M155.87,31.65V48.48s3.1,1.33,8-2.65V33S159,30.32,155.87,31.65Z" fill="#ffd105" stroke="#000" stroke-miterlimit="10" stroke-width="15"/><path d="M181.12,21s-2.66.89,0,2.22h2.65s.45-.45.45.44.44,19,.44,19,0,8,9.74,8,11.08-6.2,11.08-6.2-1.33-2.66-2.22-.45-2.21,4.88-7.08,4.43V24.57s0-1.33,2.65-1.33,6.65.44,4-2.22h-6.64v-9.3L184.66,17v4Z" fill="#ffd105" stroke="#000" stroke-miterlimit="10" stroke-width="15"/><path d="M230.28,25c.14.42,4-.44.44-2.22s-12.84-4.87-19.49,3.1c0,0-3.54,4.43,2.66,9.75S225,45.38,225,45.38s1.78,3.55-4.87,3.55a13.84,13.84,0,0,1-7.53-2.66c-3.54-2.66-2.21,1.77,0,2.66a21.13,21.13,0,0,0,15.5.44c7.53-2.66,5.76-10.63,4.88-12a46.5,46.5,0,0,0-6.65-6.64c-2.21-1.78-7.53-4.43-6.64-7.09S229.84,23.68,230.28,25Z" fill="#ffd105" stroke="#000" stroke-miterlimit="10" stroke-width="15"/><path d="M31.36,14.35c2.2,2.93,4.14-1,2.07-2.07S28.26,8.66,21,8.66,7.05,12.8,6.53,20,12.74,33,16.36,35.56,27.23,43.83,27.74,45.9s0,7.76-9.31,6.73S7.57,48,7.57,48s-2.07-1-2.07,1.55S14.81,54.7,19,54.7s17.59-.52,18.1-14.49c0,0,0-6.72-7.76-12.93s-15-11.9-11.89-15S29.81,12.28,31.36,14.35Z" fill="#ffd105"/><path d="M58,8.66h-.5S43.56,44,42.56,45a10,10,0,0,0-2.48-.5,1.35,1.35,0,0,0-1,2,8.32,8.32,0,0,0,2.49,1l-2,3.49c-.5,1.49-.5,2.48,2,1.49,0,0,1.49-4,2.49-5a155.93,155.93,0,0,1,16.41,0S62,52.93,63,52.93H78.37Zm.5,36.8H46c-1.49,0-1-1-1-1l6.47-15.42c.49-1,7,14.43,7.46,15.42S58.48,45.46,58.48,45.46Z" fill="#ffd105" stroke="#000" stroke-miterlimit="10"/><path d="M68,10.67s-2-2,1-2H83.12s.5,0,1,1,9.06,21.13,9.06,21.13.5,1.51,1,0,8.56-21.63,8.56-21.63,2-1.51,2,1L87.65,52.93h-.51Z" fill="#ffd105" stroke="#000" stroke-miterlimit="10"/><path d="M107.81,8.66h27.7s2.52,1.51,0,2.52a26.63,26.63,0,0,0-4-.51h-7.55s-.5,0-.5,1v8.56H132s4.53,1.52,0,2.52h-8.06a.49.49,0,0,0-.5.51V50s-.51.51,1,.51H134s4.54,2,0,2H107.81Z" fill="#ffd105" stroke="#000" stroke-miterlimit="10"/><path d="M174.55,22.8c-7.55-7-25.65-3.52-27.66-1s1,2.51,1,2.51c6-6,17.1-3,17.1-3v8.55c-6.54-2.52-10.56-1.51-10.56-1.51-15.09,1.51-14.59,18.1-6.54,22.13s14.59,1,15.59,0S165,50,165,51a1,1,0,0,0,1,1h10.56a1.48,1.48,0,0,0,1.51-1.51V31.86C178.07,25.32,174.55,22.8,174.55,22.8ZM165,47c-5.53,4.52-9.05,3-9.05,3V30.85c3.52-1.51,9.05,1.51,9.05,1.51Z" fill="#ffd105" stroke="#000" stroke-miterlimit="10"/><path d="M179.31,18.46s-3.09,1,0,2.57h3.08s.52-.51.52.52.51,22.12.51,22.12,0,9.26,11.32,9.26,12.86-7.21,12.86-7.21-1.54-3.08-2.57-.51-2.57,5.66-8.23,5.14V22.58s0-1.55,3.08-1.55,7.72.52,4.63-2.57H196.8V7.66l-13.38,6.17v4.63Z" fill="#ffd105" stroke="#000" stroke-miterlimit="10"/><path d="M230.16,24.39c.15.46,4.36-.48.48-2.42s-14-5.33-21.31,3.39c0,0-3.88,4.84,2.91,10.66s12.11,10.65,12.11,10.65,1.93,3.88-5.33,3.88a15.14,15.14,0,0,1-8.24-2.91c-3.87-2.9-2.42,1.94,0,2.91a23.12,23.12,0,0,0,17,.49C236,48.13,234,39.41,233.07,38a51.52,51.52,0,0,0-7.27-7.26c-2.42-1.94-8.24-4.85-7.27-7.75S229.68,22.94,230.16,24.39Z" fill="#ffd105" stroke="#000" stroke-miterlimit="10"/><circle cx="265.01" cy="30.11" r="29.45"/><circle cx="265.01" cy="30.11" r="26.82" fill="#ffd105" stroke="#000" stroke-miterlimit="10"/><path d="M252.55,10.86a70.14,70.14,0,0,1,9.78,7.89c.39.35.75.72,1.11,1.08a10,10,0,0,1,1.29,1.53,7.86,7.86,0,0,1,1.46,4.19,6.1,6.1,0,0,1-.51,2.64,5.37,5.37,0,0,1-.8,1.28c-.42.47-.51.53-.72.74-.73.72-1.46,1.47-2.21,2.18l-2.28,2.11a5.49,5.49,0,0,1-2.58,1.37,6.33,6.33,0,0,1-2.56,0A8.59,8.59,0,0,1,250.66,34a10.69,10.69,0,0,1-1.31-1.36c-.34-.39-.65-.8-1-1.21A72.35,72.35,0,0,1,241.27,21l.22-.2,8.64,8.93c.73.73,1.42,1.54,2.18,2.16A6,6,0,0,0,255,33.09a3,3,0,0,0,2.66-.7l2.23-2.16,2.25-2.14A3.46,3.46,0,0,0,263,27a3.15,3.15,0,0,0,.28-1.39,5.45,5.45,0,0,0-.87-2.8,24.87,24.87,0,0,0-1.95-2.36l-8.17-9.37Z" fill="#f58235"/><path d="M246.55,15.71c3.17,2.6,6.22,5.31,9.33,8l4.59,4L265,31.83c1.51,1.38,3.09,2.68,4.65,4a33.76,33.76,0,0,1,4.25,4.37,53.52,53.52,0,0,1,3.6,5,33.52,33.52,0,0,1,2.92,5.66l-.43.41a32.79,32.79,0,0,1-5.55-3.13,54.82,54.82,0,0,1-4.86-3.78A33.21,33.21,0,0,1,265.36,40c-1.27-1.6-2.5-3.23-3.82-4.79l-3.94-4.67-3.88-4.74c-2.53-3.21-5.12-6.36-7.6-9.62Z" fill="#f58235"/><ellipse cx="277.73" cy="23.82" rx="11.26" ry="8.58" transform="translate(83.92 224.17) rotate(-50.85)" fill="#fff"/><path d="M274.27,28.63c-1.24,2.39-2.58,4.7-3.91,7l-2.05,3.44-2.14,3.36c-.71,1.12-1.33,2.32-2,3.49a12.36,12.36,0,0,1-2.47,3.1,20.94,20.94,0,0,1-3.3,2.42,15.43,15.43,0,0,1-4.14,1.73l-.55-.45a15.28,15.28,0,0,1,.86-4.41,19.59,19.59,0,0,1,1.7-3.71,12.14,12.14,0,0,1,2.52-3c1-.88,2.07-1.72,3-2.65l2.86-2.77,2.95-2.71c2-1.77,4-3.56,6.09-5.25Z" fill="#fff"/></g></g></svg>