<svg xmlns="http://www.w3.org/2000/svg" viewBox="-7 -7 100 101"><title>Asset 19</title><g id="Layer_2" data-name="Layer 2"><g id="logo"><circle cx="33.33" cy="33.33" r="30.95" fill="none" stroke="#000" stroke-miterlimit="10"/><circle cx="33.33" cy="33.33" r="32.83" fill="none" stroke="#000" stroke-miterlimit="10"/><path d="M88.37,92.45l10.37,12.83a4.22,4.22,0,0,1-.63,5.93h0a4.22,4.22,0,0,1-5.93-.63L81.74,97.68" stroke="#000" stroke-miterlimit="10" stroke-width="2"/><path d="M81.74,97.68,56.2,66.09a4.23,4.23,0,0,1,.63-5.93h0a4.23,4.23,0,0,1,5.94.63l25.6,31.66Z" fill="none" stroke="#000" stroke-miterlimit="10" stroke-width="2"/><text transform="translate(8.47 31.08)" font-size="11" fill="#22b573" font-family="CooperBlack, Cooper Black"><tspan xml:space="preserve"> M</tspan><tspan x="12.47" y="0" letter-spacing="-0.01em">e</tspan><tspan x="18.18" y="0">xican</tspan><tspan x="0" y="13.2" xml:space="preserve">    </tspan><tspan x="11" y="13.2" letter-spacing="-0.05em">F</tspan><tspan x="17.71" y="13.2">ood</tspan></text></g></g></svg>